<svg viewBox="0 0 330 200" xmlns="http://www.w3.org/2000/svg"><g><g><g><g><g><line x1="70" y1="178" x2="65" y2="178" style="visibility: inherit;" fill="rgb(0, 0, 0)" stroke="rgb(204, 204, 204)" stroke-width="1px"></line><line x1="70" y1="152.57142857142907" x2="65" y2="152.57142857142907" style="visibility: inherit;" fill="rgb(0, 0, 0)" stroke="rgb(204, 204, 204)" stroke-width="1px"></line><line x1="70" y1="127.14285714285755" x2="65" y2="127.14285714285755" style="visibility: inherit;" fill="rgb(0, 0, 0)" stroke="rgb(204, 204, 204)" stroke-width="1px"></line><line x1="70" y1="101.71428571428604" x2="65" y2="101.71428571428604" style="visibility: inherit;" fill="rgb(0, 0, 0)" stroke="rgb(204, 204, 204)" stroke-width="1px"></line><line x1="70" y1="76.28571428571453" x2="65" y2="76.28571428571453" style="visibility: inherit;" fill="rgb(0, 0, 0)" stroke="rgb(204, 204, 204)" stroke-width="1px"></line><line x1="70" y1="50.85714285714302" x2="65" y2="50.85714285714302" style="visibility: inherit;" fill="rgb(0, 0, 0)" stroke="rgb(204, 204, 204)" stroke-width="1px"></line><line x1="70" y1="25.42857142857153" x2="65" y2="25.42857142857153" style="visibility: inherit;" fill="rgb(0, 0, 0)" stroke="rgb(204, 204, 204)" stroke-width="1px"></line><line x1="70" y1="0" x2="65" y2="0" style="visibility: inherit;" fill="rgb(0, 0, 0)" stroke="rgb(204, 204, 204)" stroke-width="1px"></line></g><g transform="translate(60, 0)"><text x="0" y="178" dx="0em" dy="0.3em" style="text-anchor: end; visibility: hidden; font-family: &quot;Helvetica Neue&quot;, sans-serif; font-size: 12px; font-weight: 200;" fill="rgb(50, 49, 63)" stroke="none" stroke-width="1px">0.935</text><text x="0" y="152.57142857142907" dx="0em" dy="0.3em" style="text-anchor: end; visibility: inherit; font-family: &quot;Helvetica Neue&quot;, sans-serif; font-size: 12px; font-weight: 200;" fill="rgb(50, 49, 63)" stroke="none" stroke-width="1px">0.94</text><text x="0" y="127.14285714285755" dx="0em" dy="0.3em" style="text-anchor: end; visibility: inherit; font-family: &quot;Helvetica Neue&quot;, sans-serif; font-size: 12px; font-weight: 200;" fill="rgb(50, 49, 63)" stroke="none" stroke-width="1px">0.945</text><text x="0" y="101.71428571428604" dx="0em" dy="0.3em" style="text-anchor: end; visibility: inherit; font-family: &quot;Helvetica Neue&quot;, sans-serif; font-size: 12px; font-weight: 200;" fill="rgb(50, 49, 63)" stroke="none" stroke-width="1px">0.95</text><text x="0" y="76.28571428571453" dx="0em" dy="0.3em" style="text-anchor: end; visibility: inherit; font-family: &quot;Helvetica Neue&quot;, sans-serif; font-size: 12px; font-weight: 200;" fill="rgb(50, 49, 63)" stroke="none" stroke-width="1px">0.955</text><text x="0" y="50.85714285714302" dx="0em" dy="0.3em" style="text-anchor: end; visibility: inherit; font-family: &quot;Helvetica Neue&quot;, sans-serif; font-size: 12px; font-weight: 200;" fill="rgb(50, 49, 63)" stroke="none" stroke-width="1px">0.96</text><text x="0" y="25.42857142857153" dx="0em" dy="0.3em" style="text-anchor: end; visibility: inherit; font-family: &quot;Helvetica Neue&quot;, sans-serif; font-size: 12px; font-weight: 200;" fill="rgb(50, 49, 63)" stroke="none" stroke-width="1px">0.965</text><text x="0" y="0" dx="0em" dy="0.3em" style="text-anchor: end; visibility: hidden; font-family: &quot;Helvetica Neue&quot;, sans-serif; font-size: 12px; font-weight: 200;" fill="rgb(50, 49, 63)" stroke="none" stroke-width="1px">0.97</text></g><line x1="70" y1="0" x2="70" y2="178" fill="rgb(0, 0, 0)" stroke="rgb(204, 204, 204)" stroke-width="1px"></line></g></g><g transform="translate(70, 0)" clip-path="url(#clip_0)"><clipPath id="clip_0"><rect width="260" height="178"></rect></clipPath><g><g><g><line x1="0" y1="0" x2="0" y2="178" fill="rgb(0, 0, 0)" stroke="rgb(60, 60, 60)" stroke-width="1px" opacity="0.25"></line><line x1="21.666666666666664" y1="0" x2="21.666666666666664" y2="178" fill="rgb(0, 0, 0)" stroke="rgb(60, 60, 60)" stroke-width="1px" opacity="0.25"></line><line x1="43.33333333333333" y1="0" x2="43.33333333333333" y2="178" fill="rgb(0, 0, 0)" stroke="rgb(60, 60, 60)" stroke-width="1px" opacity="0.25"></line><line x1="65" y1="0" x2="65" y2="178" fill="rgb(0, 0, 0)" stroke="rgb(60, 60, 60)" stroke-width="1px" opacity="0.25"></line><line x1="86.66666666666666" y1="0" x2="86.66666666666666" y2="178" fill="rgb(0, 0, 0)" stroke="rgb(60, 60, 60)" stroke-width="1px" opacity="0.25"></line><line x1="108.33333333333334" y1="0" x2="108.33333333333334" y2="178" fill="rgb(0, 0, 0)" stroke="rgb(60, 60, 60)" stroke-width="1px" opacity="0.25"></line><line x1="130" y1="0" x2="130" y2="178" fill="rgb(0, 0, 0)" stroke="rgb(60, 60, 60)" stroke-width="1px" opacity="0.25"></line><line x1="151.66666666666669" y1="0" x2="151.66666666666669" y2="178" fill="rgb(0, 0, 0)" stroke="rgb(60, 60, 60)" stroke-width="1px" opacity="0.25"></line><line x1="173.33333333333331" y1="0" x2="173.33333333333331" y2="178" fill="rgb(0, 0, 0)" stroke="rgb(60, 60, 60)" stroke-width="1px" opacity="0.25"></line><line x1="195" y1="0" x2="195" y2="178" fill="rgb(0, 0, 0)" stroke="rgb(60, 60, 60)" stroke-width="1px" opacity="0.25"></line><line x1="216.66666666666669" y1="0" x2="216.66666666666669" y2="178" fill="rgb(0, 0, 0)" stroke="rgb(60, 60, 60)" stroke-width="1px" opacity="0.25"></line><line x1="238.33333333333331" y1="0" x2="238.33333333333331" y2="178" fill="rgb(0, 0, 0)" stroke="rgb(60, 60, 60)" stroke-width="1px" opacity="0.25"></line><line x1="260" y1="0" x2="260" y2="178" fill="rgb(0, 0, 0)" stroke="rgb(60, 60, 60)" stroke-width="1px" opacity="0.25"></line></g><g><line x1="0" y1="178" x2="260" y2="178" fill="rgb(0, 0, 0)" stroke="rgb(60, 60, 60)" stroke-width="1px" opacity="0.25"></line><line x1="0" y1="152.57142857142907" x2="260" y2="152.57142857142907" fill="rgb(0, 0, 0)" stroke="rgb(60, 60, 60)" stroke-width="1px" opacity="0.25"></line><line x1="0" y1="127.14285714285755" x2="260" y2="127.14285714285755" fill="rgb(0, 0, 0)" stroke="rgb(60, 60, 60)" stroke-width="1px" opacity="0.25"></line><line x1="0" y1="101.71428571428604" x2="260" y2="101.71428571428604" fill="rgb(0, 0, 0)" stroke="rgb(60, 60, 60)" stroke-width="1px" opacity="0.25"></line><line x1="0" y1="76.28571428571453" x2="260" y2="76.28571428571453" fill="rgb(0, 0, 0)" stroke="rgb(60, 60, 60)" stroke-width="1px" opacity="0.25"></line><line x1="0" y1="50.85714285714302" x2="260" y2="50.85714285714302" fill="rgb(0, 0, 0)" stroke="rgb(60, 60, 60)" stroke-width="1px" opacity="0.25"></line><line x1="0" y1="25.42857142857153" x2="260" y2="25.42857142857153" fill="rgb(0, 0, 0)" stroke="rgb(60, 60, 60)" stroke-width="1px" opacity="0.25"></line><line x1="0" y1="0" x2="260" y2="0" fill="rgb(0, 0, 0)" stroke="rgb(60, 60, 60)" stroke-width="1px" opacity="0.25"></line></g></g></g><g><g><line x1="0" y1="4933.142857142868" x2="260" y2="4933.142857142868" fill="rgb(0, 0, 0)" stroke="rgb(153, 153, 153)" stroke-width="1.5px"></line></g></g><g><g><line x1="21.666666666666664" y1="0" x2="21.666666666666664" y2="178" fill="rgb(0, 0, 0)" stroke="rgb(153, 153, 153)" stroke-width="1.5px"></line></g></g><g><g><g><g><g><path stroke="rgb(0, 119, 187)" stroke-width="2px" d="M30.333333333333332,219.2627391848032L34.666666666666664,167.43842146621998L39,139.56643988292188L43.33333333333333,124.01466252877621L47.666666666666664,111.30016822038385L52,102.39925735695425L56.333333333333336,95.87776982777956L60.666666666666664,92.27469267293709L65,88.20523860566067L69.33333333333333,84.9832439713683L73.66666666666667,82.39288273746716L78,81.43004951152852L82.33333333333333,79.52063523227791L86.66666666666666,77.93803183059053L91,76.61735986571703L95.33333333333333,75.50900464448841L99.66666666666667,75.62089108630636L104,74.68054932808712L108.33333333333334,73.8817321500425L112.66666666666667,73.20118228812497L117,73.6300012991826L121.33333333333333,72.99300476392331L125.66666666666667,72.44686554885251L130,71.97790422468036L134.33333333333334,71.57468271213862L138.66666666666666,71.72121505652143L143,71.35526787136564L147.33333333333334,71.03968962623978L151.66666666666669,70.7673500687743L156,70.53217772555526L160.33333333333334,70.32899045163856L164.66666666666666,70.15335605808502L169,70.0014769893625L173.33333333333331,69.87009438403814L177.66666666666666,69.7564078730495L182,69.6580082425347L186.33333333333334,69.57282067850768L190.66666666666666,69.49905676547365L195,69.43517376459239L199.33333333333334,69.37983997390877L203.66666666666666,69.81626684277556L208,69.7101774635001L212.33333333333334,69.61825502799599L216.66666666666669,69.5386011277227L221,69.469573382755L225.33333333333334,69.40975050634599L229.66666666666666,69.35790223689706L234,69.31296343455669L238.33333333333331,69.2740117470654" style="fill: none;" fill="none"></path></g><g><path stroke="rgb(204, 51, 17)" stroke-width="2px" d="M26,168.9881708962579L30.333333333333332,141.79330019126746L34.666666666666664,103.70684469916044L39,84.8559202989637L43.33333333333333,73.69704274486274L47.666666666666664,62.469103979311996L52,54.608871420456126L56.333333333333336,48.84986434853985L60.666666666666664,47.60056532121976L65,43.66871964568935L69.33333333333333,40.55567660355416L73.66666666666667,38.052908309036695L78,38.68414269339172L82.33333333333333,36.59903448412109L86.66666666666666,34.87080851412762L91,34.68183487647147L95.33333333333333,33.28865868294696L99.66666666666667,34.55157564725678L104,33.20970429888453L108.33333333333334,32.06978907717112L112.66666666666667,32.28327351117247L117,33.64196375794219L121.33333333333333,32.4660736968697L125.66666666666667,31.457905458243204L130,30.592206934628138L134.33333333333334,29.84786353122911L138.66666666666666,30.357002020830834L143,29.649132886343295L147.33333333333334,29.038694800461798L151.66666666666669,28.511895375163448L156,28.05699026917341L160.33333333333334,27.663955411793268L164.66666666666666,27.324217408076407L169,27.030430464810905L173.33333333333331,26.776290810537375L177.66666666666666,26.556381557505176L182,26.366042448171186L186.33333333333334,26.201260070650875L190.66666666666666,26.05857500735823L195,25.935003064803368L199.33333333333334,25.82796826823099L203.66666666666666,26.86353676975378L208,26.632816039729818L212.33333333333334,27.560496396893228L216.66666666666669,28.364362811555566L221,27.93392455446076L225.33333333333334,27.560885355974364L229.66666666666666,27.237573639136116L234,26.957347481318095L238.33333333333331,26.714455344499697" style="fill: none;" fill="none"></path></g></g></g></g><g opacity="0.2"><g><g><g><path stroke="rgb(0, 119, 187)" stroke-width="2px" d="M30.333333333333332,188.89789336068318L34.666666666666664,83.55096844264445L39,76.2857991627285L43.33333333333333,79.91853536878318L47.666666666666664,69.02032675061909L52,69.02032675061909L56.333333333333336,69.02032675061909L60.666666666666664,76.2857991627285L65,69.02032675061909L69.33333333333333,69.02032675061909L73.66666666666667,69.02032675061909L78,76.2857991627285L82.33333333333333,69.02032675061909L86.66666666666666,69.02032675061909L91,69.02032675061909L95.33333333333333,69.02032675061909L99.66666666666667,76.2857991627285L104,69.02032675061909L108.33333333333334,69.02032675061909L112.66666666666667,69.02032675061909L117,76.2857991627285L121.33333333333333,69.02032675061909L125.66666666666667,69.02032675061909L130,69.02032675061909L134.33333333333334,69.02032675061909L138.66666666666666,72.65306295667378L143,69.02032675061909L147.33333333333334,69.02032675061909L151.66666666666669,69.02032675061909L156,69.02032675061909L160.33333333333334,69.02032675061909L164.66666666666666,69.02032675061909L169,69.02032675061909L173.33333333333331,69.02032675061909L177.66666666666666,69.02032675061909L182,69.02032675061909L186.33333333333334,69.02032675061909L190.66666666666666,69.02032675061909L195,69.02032675061909L199.33333333333334,69.02032675061909L203.66666666666666,72.65306295667378L208,69.02032675061909L212.33333333333334,69.02032675061909L216.66666666666669,69.02032675061909L221,69.02032675061909L225.33333333333334,69.02032675061909L229.66666666666666,69.02032675061909L234,69.02032675061909L238.33333333333331,69.02032675061909" style="fill: none;" fill="none"></path></g><g><path stroke="rgb(204, 51, 17)" stroke-width="2px" d="M26,168.9881708962579L30.333333333333332,118.2153472900392L34.666666666666664,42.05671814509796L39,42.05671814509796L43.33333333333333,42.05671814509796L47.666666666666664,25.132544653756213L52,25.132544653756213L56.333333333333336,25.132544653756213L60.666666666666664,42.05671814509796L65,25.132544653756213L69.33333333333333,25.132544653756213L73.66666666666667,25.132544653756213L78,42.05671814509796L82.33333333333333,25.132544653756213L86.66666666666666,25.132544653756213L91,33.59478296552379L95.33333333333333,25.132544653756213L99.66666666666667,42.05671814509796L104,25.132544653756213L108.33333333333334,25.132544653756213L112.66666666666667,33.59478296552379L117,42.05671814509796L121.33333333333333,25.132544653756213L125.66666666666667,25.132544653756213L130,25.132544653756213L134.33333333333334,25.132544653756213L138.66666666666666,33.59478296552379L143,25.132544653756213L147.33333333333334,25.132544653756213L151.66666666666669,25.132544653756213L156,25.132544653756213L160.33333333333334,25.132544653756213L164.66666666666666,25.132544653756213L169,25.132544653756213L173.33333333333331,25.132544653756213L177.66666666666666,25.132544653756213L182,25.132544653756213L186.33333333333334,25.132544653756213L190.66666666666666,25.132544653756213L195,25.132544653756213L199.33333333333334,25.132544653756213L203.66666666666666,33.59478296552379L208,25.132544653756213L212.33333333333334,33.59478296552379L216.66666666666669,33.59478296552379L221,25.132544653756213L225.33333333333334,25.132544653756213L229.66666666666666,25.132544653756213L234,25.132544653756213L238.33333333333331,25.132544653756213" style="fill: none;" fill="none"></path></g></g></g></g></g></g><g transform="translate(70, 178)" clip-path="url(#clip_1)"><clipPath id="clip_1"><rect width="260" height="22"></rect></clipPath><g><g><line x1="0" y1="0" x2="0" y2="5" style="visibility: inherit;" fill="rgb(0, 0, 0)" stroke="rgb(204, 204, 204)" stroke-width="1px"></line><line x1="21.666666666666664" y1="0" x2="21.666666666666664" y2="5" style="visibility: inherit;" fill="rgb(0, 0, 0)" stroke="rgb(204, 204, 204)" stroke-width="1px"></line><line x1="43.33333333333333" y1="0" x2="43.33333333333333" y2="5" style="visibility: inherit;" fill="rgb(0, 0, 0)" stroke="rgb(204, 204, 204)" stroke-width="1px"></line><line x1="65" y1="0" x2="65" y2="5" style="visibility: inherit;" fill="rgb(0, 0, 0)" stroke="rgb(204, 204, 204)" stroke-width="1px"></line><line x1="86.66666666666666" y1="0" x2="86.66666666666666" y2="5" style="visibility: inherit;" fill="rgb(0, 0, 0)" stroke="rgb(204, 204, 204)" stroke-width="1px"></line><line x1="108.33333333333334" y1="0" x2="108.33333333333334" y2="5" style="visibility: inherit;" fill="rgb(0, 0, 0)" stroke="rgb(204, 204, 204)" stroke-width="1px"></line><line x1="130" y1="0" x2="130" y2="5" style="visibility: inherit;" fill="rgb(0, 0, 0)" stroke="rgb(204, 204, 204)" stroke-width="1px"></line><line x1="151.66666666666669" y1="0" x2="151.66666666666669" y2="5" style="visibility: inherit;" fill="rgb(0, 0, 0)" stroke="rgb(204, 204, 204)" stroke-width="1px"></line><line x1="173.33333333333331" y1="0" x2="173.33333333333331" y2="5" style="visibility: inherit;" fill="rgb(0, 0, 0)" stroke="rgb(204, 204, 204)" stroke-width="1px"></line><line x1="195" y1="0" x2="195" y2="5" style="visibility: inherit;" fill="rgb(0, 0, 0)" stroke="rgb(204, 204, 204)" stroke-width="1px"></line><line x1="216.66666666666669" y1="0" x2="216.66666666666669" y2="5" style="visibility: inherit;" fill="rgb(0, 0, 0)" stroke="rgb(204, 204, 204)" stroke-width="1px"></line><line x1="238.33333333333331" y1="0" x2="238.33333333333331" y2="5" style="visibility: inherit;" fill="rgb(0, 0, 0)" stroke="rgb(204, 204, 204)" stroke-width="1px"></line><line x1="260" y1="0" x2="260" y2="5" style="visibility: inherit;" fill="rgb(0, 0, 0)" stroke="rgb(204, 204, 204)" stroke-width="1px"></line></g><g transform="translate(0, 8)"><text x="0" y="0" dx="0em" dy="0.95em" style="text-anchor: middle; visibility: hidden; font-family: &quot;Helvetica Neue&quot;, sans-serif; font-size: 12px; font-weight: 200;" fill="rgb(50, 49, 63)" stroke="none" stroke-width="1px">-5</text><text x="21.666666666666664" y="0" dx="0em" dy="0.95em" style="text-anchor: middle; visibility: inherit; font-family: &quot;Helvetica Neue&quot;, sans-serif; font-size: 12px; font-weight: 200;" fill="rgb(50, 49, 63)" stroke="none" stroke-width="1px">0</text><text x="43.33333333333333" y="0" dx="0em" dy="0.95em" style="text-anchor: middle; visibility: inherit; font-family: &quot;Helvetica Neue&quot;, sans-serif; font-size: 12px; font-weight: 200;" fill="rgb(50, 49, 63)" stroke="none" stroke-width="1px">5</text><text x="65" y="0" dx="0em" dy="0.95em" style="text-anchor: middle; visibility: inherit; font-family: &quot;Helvetica Neue&quot;, sans-serif; font-size: 12px; font-weight: 200;" fill="rgb(50, 49, 63)" stroke="none" stroke-width="1px">10</text><text x="86.66666666666666" y="0" dx="0em" dy="0.95em" style="text-anchor: middle; visibility: inherit; font-family: &quot;Helvetica Neue&quot;, sans-serif; font-size: 12px; font-weight: 200;" fill="rgb(50, 49, 63)" stroke="none" stroke-width="1px">15</text><text x="108.33333333333334" y="0" dx="0em" dy="0.95em" style="text-anchor: middle; visibility: inherit; font-family: &quot;Helvetica Neue&quot;, sans-serif; font-size: 12px; font-weight: 200;" fill="rgb(50, 49, 63)" stroke="none" stroke-width="1px">20</text><text x="130" y="0" dx="0em" dy="0.95em" style="text-anchor: middle; visibility: inherit; font-family: &quot;Helvetica Neue&quot;, sans-serif; font-size: 12px; font-weight: 200;" fill="rgb(50, 49, 63)" stroke="none" stroke-width="1px">25</text><text x="151.66666666666669" y="0" dx="0em" dy="0.95em" style="text-anchor: middle; visibility: inherit; font-family: &quot;Helvetica Neue&quot;, sans-serif; font-size: 12px; font-weight: 200;" fill="rgb(50, 49, 63)" stroke="none" stroke-width="1px">30</text><text x="173.33333333333331" y="0" dx="0em" dy="0.95em" style="text-anchor: middle; visibility: inherit; font-family: &quot;Helvetica Neue&quot;, sans-serif; font-size: 12px; font-weight: 200;" fill="rgb(50, 49, 63)" stroke="none" stroke-width="1px">35</text><text x="195" y="0" dx="0em" dy="0.95em" style="text-anchor: middle; visibility: inherit; font-family: &quot;Helvetica Neue&quot;, sans-serif; font-size: 12px; font-weight: 200;" fill="rgb(50, 49, 63)" stroke="none" stroke-width="1px">40</text><text x="216.66666666666669" y="0" dx="0em" dy="0.95em" style="text-anchor: middle; visibility: inherit; font-family: &quot;Helvetica Neue&quot;, sans-serif; font-size: 12px; font-weight: 200;" fill="rgb(50, 49, 63)" stroke="none" stroke-width="1px">45</text><text x="238.33333333333331" y="0" dx="0em" dy="0.95em" style="text-anchor: middle; visibility: inherit; font-family: &quot;Helvetica Neue&quot;, sans-serif; font-size: 12px; font-weight: 200;" fill="rgb(50, 49, 63)" stroke="none" stroke-width="1px">50</text><text x="260" y="0" dx="0em" dy="0.95em" style="text-anchor: middle; visibility: hidden; font-family: &quot;Helvetica Neue&quot;, sans-serif; font-size: 12px; font-weight: 200;" fill="rgb(50, 49, 63)" stroke="none" stroke-width="1px">55</text></g><line x1="0" y1="0" x2="260" y2="0" fill="rgb(0, 0, 0)" stroke="rgb(204, 204, 204)" stroke-width="1px"></line></g></g></g></g></svg>