<svg viewBox="0 0 330 200" xmlns="http://www.w3.org/2000/svg"><g><g><g><g><g><line x1="41.0620002746582" y1="93.61553814181995" x2="36.0620002746582" y2="93.61553814181995" style="visibility: inherit;" fill="rgb(0, 0, 0)" stroke="rgb(204, 204, 204)" stroke-width="1px"></line><line x1="41.0620002746582" y1="11.024802608397863" x2="36.0620002746582" y2="11.024802608397863" style="visibility: inherit;" fill="rgb(0, 0, 0)" stroke="rgb(204, 204, 204)" stroke-width="1px"></line></g><g transform="translate(31.062000274658203, 0)"><text style="text-anchor: end; visibility: inherit; font-family: &quot;Helvetica Neue&quot;, sans-serif; font-size: 12px; font-weight: 200;" x="0" y="93.61553814181995" dx="0em" dy="0.3em" fill="rgb(50, 49, 63)" stroke="none" stroke-width="1px">0.7</text><text style="text-anchor: end; visibility: inherit; font-family: &quot;Helvetica Neue&quot;, sans-serif; font-size: 12px; font-weight: 200;" x="0" y="11.024802608397863" dx="0em" dy="0.3em" fill="rgb(50, 49, 63)" stroke="none" stroke-width="1px">0.8</text></g><line x1="41.0620002746582" y1="0" x2="41.0620002746582" y2="177.95999908447266" fill="rgb(0, 0, 0)" stroke="rgb(204, 204, 204)" stroke-width="1px"></line></g></g><g transform="translate(41, 0)" clip-path="url(#clip_0)"><clipPath id="clip_0"><rect width="288" height="177"></rect></clipPath><g><g><g><line x1="0" y1="0" x2="0" y2="177.95999908447266" fill="rgb(0, 0, 0)" stroke="rgb(60, 60, 60)" stroke-width="1px" opacity="0.25"></line><line x1="24.07816664377848" y1="0" x2="24.07816664377848" y2="177.95999908447266" fill="rgb(0, 0, 0)" stroke="rgb(60, 60, 60)" stroke-width="1px" opacity="0.25"></line><line x1="48.15633328755696" y1="0" x2="48.15633328755696" y2="177.95999908447266" fill="rgb(0, 0, 0)" stroke="rgb(60, 60, 60)" stroke-width="1px" opacity="0.25"></line><line x1="72.23449993133545" y1="0" x2="72.23449993133545" y2="177.95999908447266" fill="rgb(0, 0, 0)" stroke="rgb(60, 60, 60)" stroke-width="1px" opacity="0.25"></line><line x1="96.31266657511392" y1="0" x2="96.31266657511392" y2="177.95999908447266" fill="rgb(0, 0, 0)" stroke="rgb(60, 60, 60)" stroke-width="1px" opacity="0.25"></line><line x1="120.39083321889242" y1="0" x2="120.39083321889242" y2="177.95999908447266" fill="rgb(0, 0, 0)" stroke="rgb(60, 60, 60)" stroke-width="1px" opacity="0.25"></line><line x1="144.4689998626709" y1="0" x2="144.4689998626709" y2="177.95999908447266" fill="rgb(0, 0, 0)" stroke="rgb(60, 60, 60)" stroke-width="1px" opacity="0.25"></line><line x1="168.5471665064494" y1="0" x2="168.5471665064494" y2="177.95999908447266" fill="rgb(0, 0, 0)" stroke="rgb(60, 60, 60)" stroke-width="1px" opacity="0.25"></line><line x1="192.62533315022785" y1="0" x2="192.62533315022785" y2="177.95999908447266" fill="rgb(0, 0, 0)" stroke="rgb(60, 60, 60)" stroke-width="1px" opacity="0.25"></line><line x1="216.70349979400635" y1="0" x2="216.70349979400635" y2="177.95999908447266" fill="rgb(0, 0, 0)" stroke="rgb(60, 60, 60)" stroke-width="1px" opacity="0.25"></line><line x1="240.78166643778485" y1="0" x2="240.78166643778485" y2="177.95999908447266" fill="rgb(0, 0, 0)" stroke="rgb(60, 60, 60)" stroke-width="1px" opacity="0.25"></line><line x1="264.8598330815633" y1="0" x2="264.8598330815633" y2="177.95999908447266" fill="rgb(0, 0, 0)" stroke="rgb(60, 60, 60)" stroke-width="1px" opacity="0.25"></line><line x1="288.9379997253418" y1="0" x2="288.9379997253418" y2="177.95999908447266" fill="rgb(0, 0, 0)" stroke="rgb(60, 60, 60)" stroke-width="1px" opacity="0.25"></line></g><g><line x1="0" y1="93.61553814181995" x2="288.9379997253418" y2="93.61553814181995" fill="rgb(0, 0, 0)" stroke="rgb(60, 60, 60)" stroke-width="1px" opacity="0.25"></line><line x1="0" y1="11.024802608397863" x2="288.9379997253418" y2="11.024802608397863" fill="rgb(0, 0, 0)" stroke="rgb(60, 60, 60)" stroke-width="1px" opacity="0.25"></line></g></g></g><g><g><line x1="24.07816664377848" y1="0" x2="24.07816664377848" y2="177.95999908447266" fill="rgb(0, 0, 0)" stroke="rgb(153, 153, 153)" stroke-width="1.5px"></line></g></g><g><g><g><g><g><path style="fill: none;" stroke="rgb(0, 119, 187)" stroke-width="2px" d="M38.52506663004557,246.4483271293753L43.34069995880127,167.2641688060169L48.15633328755696,126.85471584265672L52.971966616312656,101.23687266207497L57.787599945068365,84.47010332073864L62.60323327382406,72.91119422747232L67.41886660257975,63.98781177232901L72.23449993133545,58.10183058390524L77.05013326009114,52.61938334785576L81.86576658884684,46.45474821797691L86.68139991760253,44.793452843796956L91.49703324635823,41.305242043612196L96.31266657511392,38.610084883415226L101.12829990386962,35.894632733391575L105.94393323262531,35.15685524076355L110.75956656138104,33.822398114203L115.57519989013673,34.66068294722089L120.39083321889242,34.567483236063794L125.20646654764812,36.281250828516846L130.02209987640381,35.84717029867235L134.8377332051595,35.41114896725256L139.6533665339152,33.29012857814985L144.4689998626709,33.90493908055262L149.28463319142662,34.858386431260755L154.1002665201823,33.97735735597033L158.915899848938,34.77479050179525L163.73153317769368,33.72544873493797L168.5471665064494,34.01512655158365L173.36279983520507,35.271071463939336L178.1784331639608,34.724173299855494L182.99406649271646,35.59894657555816L187.80969982147218,35.31017845628111L192.62533315022785,33.21758310034471L197.44096647898357,32.86843077566789L202.25659980773924,33.150499246038606L207.07223313649496,34.35186043558474L211.88786646525062,35.303731864751114L216.70349979400635,35.4970030802107L221.51913312276207,36.210706012185454L226.33476645151774,36.77581106889505L231.15039978027346,37.223163977298725L235.96603310902913,37.577242447120426L240.78166643778485,37.57626376901953L245.59729976654052,36.12469004910196L250.41293309529624,36.14647793389702L255.2285664240519,36.724937266025535L260.04419975280763,36.62124063298509L264.8598330815633,37.10079228169215" fill="none"></path></g><g><path style="fill: none;" stroke="rgb(204, 51, 17)" stroke-width="2px" d="M38.52506663004557,234.88307859587815L43.34069995880127,157.74556667918685L48.15633328755696,118.52875508036149L52.971966616312656,92.93191970976427L57.787599945068365,76.1784365903938L62.60323327382406,64.62847960293055L67.41886660257975,55.390926322709774L72.23449993133545,49.5858928700284L77.05013326009114,43.87076482919667L81.86576658884684,39.10793895235349L86.68139991760253,37.24484036874543L91.49703324635823,34.06428943416623L96.31266657511392,31.605763590514016L101.12829990386962,30.122314774534203L105.94393323262531,29.812701993524257L110.75956656138104,28.30398101889591L115.57519989013673,28.801804375444647L120.39083321889242,27.935354679362717L125.20646654764812,29.765401543521904L130.02209987640381,28.69820515571459L134.8377332051595,27.85765867268944L139.6533665339152,26.77900542997375L144.4689998626709,26.759130602318237L149.28463319142662,27.57458585628197L154.1002665201823,26.972658599821727L158.915899848938,27.74295115122254L163.73153317769368,27.9367593387002L168.5471665064494,27.674530828516907L173.36279983520507,28.298106333678476L178.1784331639608,27.544994010835325L182.99406649271646,28.195386043191064L187.80969982147218,27.464002568030452L192.62533315022785,26.471751761550195L197.44096647898357,26.930593234894474L202.25659980773924,26.46469169686506L207.07223313649496,27.33964717460327L211.88786646525062,28.032570418810423L216.70349979400635,27.7504913712514L221.51913312276207,28.35785646410045L226.33476645151774,28.83868985483545L231.15039978027346,29.21928449286051L235.96603310902913,29.5204948635718L240.78166643778485,29.758852480888862L245.59729976654052,28.699145947852884L250.41293309529624,28.277469695359514L255.2285664240519,28.775034616117864L260.04419975280763,28.337458372435975L264.8598330815633,28.822520851488576" fill="none"></path></g></g></g></g><g opacity="0.2"><g><g><g><path style="fill: none;" stroke="rgb(0, 119, 187)" stroke-width="2px" d="M28.893799972534183,1692.4622908925644L33.70943330128988,113.31579770551141L38.52506663004557,49.341131300436444L43.34069995880127,39.36856867141634L48.15633328755696,42.750315721928615L52.971966616312656,38.91910142690048L57.787599945068365,38.91910142690048L62.60323327382406,38.91910142690048L67.41886660257975,36.22894354386108L72.23449993133545,38.91910142690048L77.05013326009114,34.21897591681309L81.86576658884684,25.363944759511355L86.68139991760253,38.91910142690048L91.49703324635823,28.890777878306977L96.31266657511392,28.890777878306977L101.12829990386962,26.02369003598949L105.94393323262531,32.43778913004033L110.75956656138104,28.890777878306977L115.57519989013673,37.79676397989519L120.39083321889242,34.21897591681309L125.20646654764812,42.750315721928615L130.02209987640381,34.21897591681309L134.8377332051595,33.773186150933896L139.6533665339152,25.363944759511355L144.4689998626709,36.22894354386108L149.28463319142662,38.46991239566711L154.1002665201823,30.661717069477646L158.915899848938,37.79676397989519L163.73153317769368,29.77561364912259L168.5471665064494,35.11147259862781L173.36279983520507,40.04343084856896L178.1784331639608,32.66013926716934L182.99406649271646,38.91910142690048L187.80969982147218,34.21897591681309L192.62533315022785,25.363944759511355L197.44096647898357,31.549139414301777L202.25659980773924,34.21897591681309L207.07223313649496,38.91910142690048L211.88786646525062,38.91910142690048L216.70349979400635,36.22894354386108L221.51913312276207,38.91910142690048L226.33476645151774,38.91910142690048L231.15039978027346,38.91910142690048L235.96603310902913,38.91910142690048L240.78166643778485,37.57255991338562L245.59729976654052,30.661717069477646L250.41293309529624,36.22894354386108L255.2285664240519,38.91910142690048L260.04419975280763,36.22894354386108L264.8598330815633,38.91910142690048" fill="none"></path></g><g><path style="fill: none;" stroke="rgb(204, 51, 17)" stroke-width="2px" d="M28.893799972534183,1666.9530465149278L33.70943330128988,107.01342630345091L38.52506663004557,34.6650872155646L43.34069995880127,32.66018699037036L48.15633328755696,36.67650744689843L52.971966616312656,30.661764638733047L57.787599945068365,30.661764638733047L62.60323327382406,30.661764638733047L67.41886660257975,26.684187055966476L72.23449993133545,30.661764638733047L77.05013326009114,24.70494957424154L81.86576658884684,22.73202545467666L86.68139991760253,30.661764638733047L91.49703324635823,22.73202545467666L96.31266657511392,22.73202545467666L101.12829990386962,24.70494957424154L105.94393323262531,28.669778435149112L110.75956656138104,22.73202545467666L115.57519989013673,30.661764638733047L120.39083321889242,24.70494957424154L125.20646654764812,36.67650744689843L130.02209987640381,24.70494957424154L134.8377332051595,24.70494957424154L139.6533665339152,22.73202545467666L144.4689998626709,26.684187055966476L149.28463319142662,30.661764638733047L154.1002665201823,24.70494957424154L158.915899848938,30.661764638733047L163.73153317769368,28.669778435149112L168.5471665064494,26.684187055966476L173.36279983520507,30.661764638733047L178.1784331639608,24.70494957424154L182.99406649271646,30.661764638733047L187.80969982147218,24.70494957424154L192.62533315022785,22.73202545467666L197.44096647898357,28.669778435149112L202.25659980773924,24.70494957424154L207.07223313649496,30.661764638733047L211.88786646525062,30.661764638733047L216.70349979400635,26.684187055966476L221.51913312276207,30.661764638733047L226.33476645151774,30.661764638733047L231.15039978027346,30.661764638733047L235.96603310902913,30.661764638733047L240.78166643778485,30.661764638733047L245.59729976654052,24.70494957424154L250.41293309529624,26.684187055966476L255.2285664240519,30.661764638733047L260.04419975280763,26.684187055966476L264.8598330815633,30.661764638733047" fill="none"></path></g></g></g></g></g></g><g transform="translate(41, 177)" clip-path="url(#clip_1)"><clipPath id="clip_1"><rect width="288" height="22"></rect></clipPath><g><g><line x1="0" y1="0" x2="0" y2="5" style="visibility: inherit;" fill="rgb(0, 0, 0)" stroke="rgb(204, 204, 204)" stroke-width="1px"></line><line x1="24.07816664377848" y1="0" x2="24.07816664377848" y2="5" style="visibility: inherit;" fill="rgb(0, 0, 0)" stroke="rgb(204, 204, 204)" stroke-width="1px"></line><line x1="48.15633328755696" y1="0" x2="48.15633328755696" y2="5" style="visibility: inherit;" fill="rgb(0, 0, 0)" stroke="rgb(204, 204, 204)" stroke-width="1px"></line><line x1="72.23449993133545" y1="0" x2="72.23449993133545" y2="5" style="visibility: inherit;" fill="rgb(0, 0, 0)" stroke="rgb(204, 204, 204)" stroke-width="1px"></line><line x1="96.31266657511392" y1="0" x2="96.31266657511392" y2="5" style="visibility: inherit;" fill="rgb(0, 0, 0)" stroke="rgb(204, 204, 204)" stroke-width="1px"></line><line x1="120.39083321889242" y1="0" x2="120.39083321889242" y2="5" style="visibility: inherit;" fill="rgb(0, 0, 0)" stroke="rgb(204, 204, 204)" stroke-width="1px"></line><line x1="144.4689998626709" y1="0" x2="144.4689998626709" y2="5" style="visibility: inherit;" fill="rgb(0, 0, 0)" stroke="rgb(204, 204, 204)" stroke-width="1px"></line><line x1="168.5471665064494" y1="0" x2="168.5471665064494" y2="5" style="visibility: inherit;" fill="rgb(0, 0, 0)" stroke="rgb(204, 204, 204)" stroke-width="1px"></line><line x1="192.62533315022785" y1="0" x2="192.62533315022785" y2="5" style="visibility: inherit;" fill="rgb(0, 0, 0)" stroke="rgb(204, 204, 204)" stroke-width="1px"></line><line x1="216.70349979400635" y1="0" x2="216.70349979400635" y2="5" style="visibility: inherit;" fill="rgb(0, 0, 0)" stroke="rgb(204, 204, 204)" stroke-width="1px"></line><line x1="240.78166643778485" y1="0" x2="240.78166643778485" y2="5" style="visibility: inherit;" fill="rgb(0, 0, 0)" stroke="rgb(204, 204, 204)" stroke-width="1px"></line><line x1="264.8598330815633" y1="0" x2="264.8598330815633" y2="5" style="visibility: inherit;" fill="rgb(0, 0, 0)" stroke="rgb(204, 204, 204)" stroke-width="1px"></line><line x1="288.9379997253418" y1="0" x2="288.9379997253418" y2="5" style="visibility: inherit;" fill="rgb(0, 0, 0)" stroke="rgb(204, 204, 204)" stroke-width="1px"></line></g><g transform="translate(0, 8)"><text style="text-anchor: middle; visibility: hidden; font-family: &quot;Helvetica Neue&quot;, sans-serif; font-size: 12px; font-weight: 200;" x="0" y="0" dx="0em" dy="0.95em" fill="rgb(50, 49, 63)" stroke="none" stroke-width="1px">-5</text><text style="text-anchor: middle; visibility: inherit; font-family: &quot;Helvetica Neue&quot;, sans-serif; font-size: 12px; font-weight: 200;" x="24.07816664377848" y="0" dx="0em" dy="0.95em" fill="rgb(50, 49, 63)" stroke="none" stroke-width="1px">0</text><text style="text-anchor: middle; visibility: inherit; font-family: &quot;Helvetica Neue&quot;, sans-serif; font-size: 12px; font-weight: 200;" x="48.15633328755696" y="0" dx="0em" dy="0.95em" fill="rgb(50, 49, 63)" stroke="none" stroke-width="1px">5</text><text style="text-anchor: middle; visibility: inherit; font-family: &quot;Helvetica Neue&quot;, sans-serif; font-size: 12px; font-weight: 200;" x="72.23449993133545" y="0" dx="0em" dy="0.95em" fill="rgb(50, 49, 63)" stroke="none" stroke-width="1px">10</text><text style="text-anchor: middle; visibility: inherit; font-family: &quot;Helvetica Neue&quot;, sans-serif; font-size: 12px; font-weight: 200;" x="96.31266657511392" y="0" dx="0em" dy="0.95em" fill="rgb(50, 49, 63)" stroke="none" stroke-width="1px">15</text><text style="text-anchor: middle; visibility: inherit; font-family: &quot;Helvetica Neue&quot;, sans-serif; font-size: 12px; font-weight: 200;" x="120.39083321889242" y="0" dx="0em" dy="0.95em" fill="rgb(50, 49, 63)" stroke="none" stroke-width="1px">20</text><text style="text-anchor: middle; visibility: inherit; font-family: &quot;Helvetica Neue&quot;, sans-serif; font-size: 12px; font-weight: 200;" x="144.4689998626709" y="0" dx="0em" dy="0.95em" fill="rgb(50, 49, 63)" stroke="none" stroke-width="1px">25</text><text style="text-anchor: middle; visibility: inherit; font-family: &quot;Helvetica Neue&quot;, sans-serif; font-size: 12px; font-weight: 200;" x="168.5471665064494" y="0" dx="0em" dy="0.95em" fill="rgb(50, 49, 63)" stroke="none" stroke-width="1px">30</text><text style="text-anchor: middle; visibility: inherit; font-family: &quot;Helvetica Neue&quot;, sans-serif; font-size: 12px; font-weight: 200;" x="192.62533315022785" y="0" dx="0em" dy="0.95em" fill="rgb(50, 49, 63)" stroke="none" stroke-width="1px">35</text><text style="text-anchor: middle; visibility: inherit; font-family: &quot;Helvetica Neue&quot;, sans-serif; font-size: 12px; font-weight: 200;" x="216.70349979400635" y="0" dx="0em" dy="0.95em" fill="rgb(50, 49, 63)" stroke="none" stroke-width="1px">40</text><text style="text-anchor: middle; visibility: inherit; font-family: &quot;Helvetica Neue&quot;, sans-serif; font-size: 12px; font-weight: 200;" x="240.78166643778485" y="0" dx="0em" dy="0.95em" fill="rgb(50, 49, 63)" stroke="none" stroke-width="1px">45</text><text style="text-anchor: middle; visibility: inherit; font-family: &quot;Helvetica Neue&quot;, sans-serif; font-size: 12px; font-weight: 200;" x="264.8598330815633" y="0" dx="0em" dy="0.95em" fill="rgb(50, 49, 63)" stroke="none" stroke-width="1px">50</text><text style="text-anchor: middle; visibility: hidden; font-family: &quot;Helvetica Neue&quot;, sans-serif; font-size: 12px; font-weight: 200;" x="288.9379997253418" y="0" dx="0em" dy="0.95em" fill="rgb(50, 49, 63)" stroke="none" stroke-width="1px">55</text></g><line x1="0" y1="0" x2="288.9379997253418" y2="0" fill="rgb(0, 0, 0)" stroke="rgb(204, 204, 204)" stroke-width="1px"></line></g></g></g></g></svg>